<svg xmlns="http://www.w3.org/2000/svg" fill="none" viewBox="0 0 35 35">
  <path fill="#F4F2F2" d="M33.409 12.107c-.797 0-1.451.616-1.567 1.417l-9.426-1.434-4.215-8.938c.526-.272.89-.832.89-1.487C19.09.745 18.379 0 17.5 0s-1.59.745-1.59 1.665c0 .655.363 1.215.889 1.487l-4.215 8.938-9.425 1.433C3.047 12.72 2.39 12.1 1.59 12.1c-.879 0-1.59.745-1.59 1.665s.711 1.665 1.59 1.665c.447 0 .85-.195 1.139-.505l6.816 6.953-1.61 9.821a1.508 1.508 0 0 0-.268-.028c-.878 0-1.59.745-1.59 1.665S6.79 35 7.667 35c.879 0 1.591-.745 1.591-1.665 0-.28-.072-.54-.189-.772l8.43-4.638 8.41 4.628c-.12.234-.194.498-.194.782 0 .92.713 1.665 1.591 1.665.879 0 1.591-.745 1.591-1.665s-.712-1.665-1.59-1.665c-.084 0-.164.013-.244.026l-1.61-9.82 6.813-6.949c.289.314.693.51 1.142.51.879 0 1.591-.745 1.591-1.665s-.712-1.665-1.591-1.665Z"/>
</svg>
