<svg xmlns="http://www.w3.org/2000/svg" aria-hidden="true" overflow="hidden" style="position:absolute;width:0;height:0">
  <defs>
    <symbol id="icon-deleted" viewBox="0 0 32 32">
      <path d="M19.293 16 31.318 3.975A2.33 2.33 0 0 0 28.025.682L16 12.707 3.975.682A2.33 2.33 0 0 0 .682 3.975L12.707 16 .682 28.025a2.33 2.33 0 0 0 3.294 3.293l12.025-12.025 12.025 12.025c.455.455 1.05.682 1.646.682s1.192-.227 1.647-.682a2.33 2.33 0 0 0 0-3.293L19.294 16z"/>
    </symbol>
    <symbol id="icon-sheriff" viewBox="0 0 32 32">
      <path d="M30.545 11.069c-.729 0-1.327.563-1.433 1.295l-8.618-1.311-3.853-8.172c.48-.249.813-.761.813-1.36 0-.841-.651-1.522-1.455-1.522s-1.455.682-1.455 1.522c0 .599.333 1.111.813 1.36l-3.853 8.172-8.617 1.31c-.102-.736-.702-1.303-1.433-1.303-.803 0-1.455.681-1.455 1.522s.651 1.522 1.455 1.522c.409 0 .777-.178 1.041-.462l6.232 6.357-1.472 8.98a1.413 1.413 0 0 0-.245-.026c-.803 0-1.455.682-1.455 1.522s.651 1.522 1.455 1.522c.803 0 1.455-.682 1.455-1.522 0-.256-.066-.494-.173-.705l7.707-4.241 7.69 4.231c-.11.214-.178.455-.178.715 0 .841.651 1.522 1.455 1.522s1.455-.682 1.455-1.522c0-.841-.651-1.522-1.455-1.522-.076 0-.149.012-.223.023l-1.471-8.977 6.228-6.354c.265.287.634.466 1.044.466.803 0 1.455-.681 1.455-1.522s-.651-1.522-1.455-1.522z"/>
    </symbol>
    <symbol id="icon-killed" viewBox="0 0 36 32">
      <path d="M35.162 15.556h-1.811a12.647 12.647 0 0 0-1.212-4.981c-.782-1.66-1.902-3.15-3.328-4.43s-3.087-2.285-4.936-2.987a16.917 16.917 0 0 0-5.55-1.088V.444c0-.245-.222-.444-.495-.444s-.495.199-.495.444V2.07a16.912 16.912 0 0 0-5.55 1.088c-1.849.702-3.51 1.707-4.936 2.987s-2.546 2.77-3.328 4.43a12.643 12.643 0 0 0-1.212 4.981H.498c-.273 0-.495.199-.495.444s.222.444.495.444h1.811c.06 1.724.466 3.398 1.212 4.981.782 1.66 1.902 3.15 3.328 4.43s3.087 2.285 4.936 2.987a16.917 16.917 0 0 0 5.55 1.088v1.626c0 .245.222.444.495.444s.495-.199.495-.444V29.93a16.917 16.917 0 0 0 5.55-1.088c1.849-.702 3.51-1.707 4.936-2.987s2.546-2.77 3.328-4.43a12.643 12.643 0 0 0 1.212-4.981h1.811c.274 0 .495-.199.495-.444s-.222-.444-.495-.444zM28.11 6.773c2.629 2.359 4.127 5.464 4.249 8.782h-1.157c-.122-3.042-1.499-5.885-3.91-8.049s-5.58-3.399-8.969-3.509V2.959c3.698.11 7.157 1.454 9.786 3.814zm.832 9.671h1.27c-.122 2.804-1.396 5.425-3.62 7.42s-5.144 3.139-8.268 3.248v-1.14c0-.245-.222-.444-.495-.444s-.495.199-.495.444v1.14c-3.125-.11-6.045-1.253-8.268-3.248s-3.497-4.616-3.619-7.42h1.27c.274 0 .495-.199.495-.444s-.222-.444-.495-.444h-1.27c.122-2.804 1.396-5.425 3.619-7.42s5.144-3.139 8.268-3.248v1.14c0 .245.222.444.495.444s.495-.199.495-.444v-1.14c3.125.109 6.045 1.253 8.268 3.248s3.497 4.616 3.62 7.42h-1.27c-.273 0-.495.199-.495.444s.222.444.495.444zM7.547 6.773c2.629-2.36 6.088-3.703 9.786-3.814v1.038c-3.389.11-6.558 1.346-8.969 3.509s-3.788 5.007-3.91 8.049H3.297c.123-3.319 1.62-6.423 4.249-8.782zm0 18.454c-2.629-2.36-4.126-5.464-4.249-8.783h1.157c.122 3.042 1.499 5.885 3.91 8.049s5.58 3.399 8.969 3.509v1.038c-3.698-.11-7.157-1.454-9.786-3.814zm20.563 0c-2.629 2.36-6.088 3.703-9.786 3.814v-1.038c3.389-.11 6.558-1.346 8.969-3.509s3.788-5.007 3.91-8.049h1.157c-.123 3.319-1.62 6.423-4.25 8.782z"/>
      <path d="M19.665 10.247a3.265 3.265 0 0 0-1.836 1.573 3.267 3.267 0 0 0-1.837-1.573c-1.539-.548-3.362.131-4.271 1.518s-.949 3.251-.349 4.803c.601 1.553 1.774 2.816 3.108 3.775.707.508 1.46.939 2.233 1.332a2.453 2.453 0 0 0 2.229 0 16.958 16.958 0 0 0 2.233-1.332c1.334-.959 2.507-2.222 3.108-3.775s.56-3.417-.349-4.803c-.909-1.386-2.732-2.066-4.271-1.518z"/>
    </symbol>
    <symbol id="icon-voted" viewBox="0 0 32 32">
      <path d="M30.232 16.831c.393.18.734.436.979.801.455.678.437 1.598.089 2.337-.319.678-.88 1.217-1.511 1.631.393.18.734.436.979.802.455.678.437 1.598.09 2.337-.304.646-.829 1.166-1.424 1.573.388.154.725.385.96.734.385.574.353 1.345.076 1.976-.651 1.483-2.747 2.809-7.44 2.809h-7.636c-1.695 0-3.53-.622-5.004-1.8a2.677 2.677 0 0 1-1.011-2.091V15.057c0-.755.325-1.47.884-1.983 1.725-1.582 2.933-4.158 3.583-6.3C14.769 3.732 13.015.7 15.598.1c2.574-.598 3.828 1.632 4.303 2.981 1.09 3.098.787 6.646-.793 9.528 3.766-.785 5.768-.969 9.302-.969 1.205 0 2.579.23 3.245 1.223.455.679.436 1.598.089 2.336-.319.678-.88 1.217-1.511 1.632zM7.315 30.968h-5.63C.755 30.968 0 30.32 0 29.521V15.414c0-.799.754-1.447 1.685-1.447h5.63c.93 0 1.685.648 1.685 1.447v14.107c0 .799-.754 1.447-1.685 1.447z"/>
    </symbol>
    <symbol id="icon-hat" viewBox="0 0 43 32">
      <path d="m34.104 11.245-.047-.016c.192.712.363 1.369.507 1.918.059.224.107.432.155.617l.048.185.235.948c.036 4.036-6.014 7.361-13.517 7.427-7.497.066-13.605-3.152-13.641-7.188l.045-.197c.059-.276.183-.839.352-1.577 0 .006.005.006.005.011l.174-.777.065-.276.089-.383.124-.535c-5.237 1.935-9.369 4.732-8.4 7.607 2.118 6.294 14.03 12.109 21.248 12.045 8.25-.073 18.262-4.956 21.032-12.418 1.048-2.826-3.173-5.538-8.475-7.391zM26.16 5.631a20.76 20.76 0 0 1 5.209-2.89c-.337-.79-.656-1.36-.932-1.577-1.558-1.251-16.9-1.397-18.433.163-.199.204-.412.583-.64 1.091 3.437.324 4.614 1.595 7.19 3.697 2.992 2.435 4.687 1.735 7.607-.484z"/>
      <path d="M21.454 18.765c6.095-.054 11.237-2.269 12.928-5.263l-.98-4.658c-.628-2.193-1.349-4.502-2.003-6.031-1.386.67-3.114 1.776-5.043 3.586-3.621 3.388-6.014 2.167-8.202.207-.624-.562-1.233-1.186-1.867-1.805-1.617-1.576-3.556-2.155-4.935-2.362-.602 1.354-1.268 3.603-1.861 5.84l-.587 3.046-.463 2.405c1.738 2.97 6.913 5.088 13.013 5.034z"/>
    </symbol>
  </defs>
</svg>
